<svg id="Layer_1" data-name="Layer 1" xmlns="http://www.w3.org/2000/svg" viewBox="0 0 128 128"><title>INTERNET</title><path d="M111.848,98.888a59.075,59.075,0,0,0,0-69.776,1.429,1.429,0,0,0-.366-.514,59.193,59.193,0,0,0-94.964,0,1.727,1.727,0,0,0-.164.173,1.747,1.747,0,0,0-.2.34,59.075,59.075,0,0,0,0,69.776,1.425,1.425,0,0,0,.365.513,59.192,59.192,0,0,0,94.979-.02,1.7,1.7,0,0,0,.149-.153A1.747,1.747,0,0,0,111.848,98.888ZM64,83.11a95.037,95.037,0,0,0-28.182,4.1,93.5,93.5,0,0,1-2.8-21.459H94.984a93.5,93.5,0,0,1-2.8,21.459A95.037,95.037,0,0,0,64,83.11Zm27.236,7.517C85.972,107.963,75.738,119.75,64,119.75S42.028,107.963,36.764,90.627A91.85,91.85,0,0,1,64,86.61,91.85,91.85,0,0,1,91.236,90.627ZM8.294,65.75H29.518a95.362,95.362,0,0,0,3.026,22.563,60.5,60.5,0,0,0-14.376,7.375A55.405,55.405,0,0,1,8.294,65.75Zm9.873-33.437a60.5,60.5,0,0,0,14.376,7.375A95.362,95.362,0,0,0,29.518,62.25H8.294A55.405,55.405,0,0,1,18.168,32.313ZM64,44.89a95.037,95.037,0,0,0,28.182-4.1,93.5,93.5,0,0,1,2.8,21.459H33.016a93.5,93.5,0,0,1,2.8-21.459A95.037,95.037,0,0,0,64,44.89ZM36.764,37.373C42.028,20.037,52.262,8.25,64,8.25S85.972,20.037,91.236,37.373A91.85,91.85,0,0,1,64,41.39,91.85,91.85,0,0,1,36.764,37.373ZM119.706,62.25H98.482a95.362,95.362,0,0,0-3.026-22.563,60.5,60.5,0,0,0,14.376-7.375A55.405,55.405,0,0,1,119.706,62.25Zm-21.223,3.5h21.223a55.405,55.405,0,0,1-9.873,29.938,60.5,60.5,0,0,0-14.376-7.375A95.362,95.362,0,0,0,98.482,65.75ZM107.745,29.5a56.971,56.971,0,0,1-13.26,6.774C90.931,24.8,85.244,15.569,78.339,10.128A55.874,55.874,0,0,1,107.745,29.5ZM49.661,10.128C42.756,15.569,37.069,24.8,33.515,36.275A56.971,56.971,0,0,1,20.255,29.5,55.874,55.874,0,0,1,49.661,10.128ZM20.255,98.5a56.971,56.971,0,0,1,13.26-6.774c3.554,11.474,9.24,20.706,16.146,26.147A55.874,55.874,0,0,1,20.255,98.5Zm58.084,19.373c6.906-5.44,12.592-14.673,16.146-26.147a56.971,56.971,0,0,1,13.26,6.774A55.874,55.874,0,0,1,78.339,117.872Z"/></svg>