<svg xmlns="http://www.w3.org/2000/svg" version="1.1" xmlns:xlink="http://www.w3.org/1999/xlink" xmlns:svgjs="http://svgjs.dev/svgjs" width="1500" height="939" viewBox="0 0 1500 939"><g transform="matrix(1,0,0,1,-0.9090909090909918,111.60044318181815)"><svg viewBox="0 0 396 248" data-background-color="#ffffff" preserveAspectRatio="xMidYMid meet" height="939" width="1500" xmlns="http://www.w3.org/2000/svg" xmlns:xlink="http://www.w3.org/1999/xlink"><g id="tight-bounds" transform="matrix(1,0,0,1,0.2400000000000091,0.4000000000000057)"><svg viewBox="0 0 395.52 247.2" height="247.2" width="395.52"><g><svg></svg></g><g><svg viewBox="0 0 395.52 247.2" height="247.2" width="395.52"><g transform="matrix(1,0,0,1,75.54432,98.5201209569378)"><svg viewBox="0 0 244.43135999999998 50.15975808612439" height="50.15975808612439" width="244.43135999999998"><g><svg viewBox="0 0 244.43135999999998 50.15975808612439" height="50.15975808612439" width="244.43135999999998"><g><svg viewBox="0 0 244.43135999999998 50.15975808612439" height="50.15975808612439" width="244.43135999999998"><g><svg viewBox="0 0 244.43135999999998 50.15975808612439" height="50.15975808612439" width="244.43135999999998"><g id="textblocktransform"><svg viewBox="0 0 244.43135999999998 50.15975808612439" height="50.15975808612439" width="244.43135999999998" id="textblock"><g><svg viewBox="0 0 244.43135999999998 50.15975808612439" height="50.15975808612439" width="244.43135999999998"><g transform="matrix(1,0,0,1,0,0)"><svg width="244.43135999999998" viewBox="-1.35 -34.1 188.07999999999998 38.6" height="50.15975808612439" data-palette-color="#8bc53f"><path d="M9.95 2L9.95 2Q6.85 2 4.5 1.35 2.15 0.7 1.15-0.1L1.15-0.1Q-1.35-2.05-1.35-4.6L-1.35-4.6Q-1.35-6.75 0.53-8.93 2.4-11.1 6.25-12.93 10.1-14.75 15.95-15.8L15.95-15.8Q18.45-16.25 21.03-16.5 23.6-16.75 26.2-16.75L26.2-16.75Q28.4-16.75 30.63-16.55 32.85-16.35 35-15.9L35-15.9Q35.7-15.75 36.6-15.53 37.5-15.3 38.45-15L38.45-15Q42.6-19.25 46.55-23.45 50.5-27.65 54.2-30.55L54.2-30.55Q56.8-32.6 59.05-33.35 61.3-34.1 63.05-34.1L63.05-34.1Q65.1-34.1 66.42-33.48 67.75-32.85 68.15-32.45L68.15-32.45Q68.3-32.3 68.15-32.15 68-32 67.85-32.15L67.85-32.15Q67.6-32.45 66.65-32.8 65.7-33.15 64.2-33.15L64.2-33.15Q62.35-33.15 59.85-32.3 57.35-31.45 54.3-29.1L54.3-29.1Q50.55-26.15 46.88-22.33 43.2-18.5 39.4-14.65L39.4-14.65Q41.35-13.95 42.98-12.75 44.6-11.55 44.85-9.8L44.85-9.8 44.85-9.6Q44.85-9.4 44.75-9.4L44.75-9.4Q44.6-9.4 44.45-9.7L44.45-9.7Q44.25-10.25 43.33-10.65 42.4-11.05 41.2-11.3 40-11.55 38.9-11.7 37.8-11.85 37.25-11.9L37.25-11.9 36.7-11.95Q32.55-7.95 28.13-4.58 23.7-1.2 18.75 0.5L18.75 0.5Q16.4 1.3 14.18 1.65 11.95 2 9.95 2ZM48.6 4.45L48.6 4.45Q46.35 2.85 45.3 0.6 44.25-1.65 44.25-4.25L44.25-4.25Q44.25-6.85 45.15-9.45L45.15-9.45Q46.05-12.1 47.78-14.95 49.5-17.8 51.55-20.53 53.6-23.25 55.53-25.53 57.45-27.8 58.78-29.3 60.1-30.8 60.35-31.15L60.35-31.15Q60.65-31.55 60.8-31.55L60.8-31.55Q61-31.55 61.1-31.23 61.2-30.9 61.2-30.5L61.2-30.5Q61.2-29.7 60.95-29.35L60.95-29.35Q59.65-27.7 57.85-25.15 56.05-22.6 54.2-19.48 52.35-16.35 50.75-13.05 49.15-9.75 48.18-6.6 47.2-3.45 47.2-0.85L47.2-0.85Q47.2 0.65 47.6 1.9 48 3.15 48.9 4.1L48.9 4.1Q48.95 4.15 48.95 4.25L48.95 4.25Q48.95 4.35 48.85 4.45 48.75 4.55 48.6 4.45ZM10.1 1.15L10.1 1.15Q11.95 1.15 14.1 0.83 16.25 0.5 18.55-0.2L18.55-0.2Q22.85-1.55 27.1-4.8 31.35-8.05 35.45-12.05L35.45-12.05Q34.8-12.1 34.15-12.1 33.5-12.1 32.8-12.1L32.8-12.1Q29.3-12.1 25.53-11.75 21.75-11.4 18.35-10.75L18.35-10.75Q12.85-9.8 9.38-8.38 5.9-6.95 4.28-5.4 2.65-3.85 2.65-2.45L2.65-2.45Q2.65-1.1 4-0.1L4-0.1Q4.7 0.4 6.3 0.78 7.9 1.15 10.1 1.15ZM56.1 0.25L56.1 0.25Q54.1 0.25 53.3-0.73 52.5-1.7 52.5-3L52.5-3Q52.5-4.25 52.97-5.65 53.45-7.05 54.05-8.3L54.05-8.3Q53.4-7.6 52.8-7.03 52.2-6.45 51.8-6.1L51.8-6.1Q51.6-5.95 51.4-5.95L51.4-5.95Q51.15-5.95 51.15-6.2L51.15-6.2Q51.15-6.45 51.45-6.65L51.45-6.65Q52.5-7.55 53.9-9.1 55.3-10.65 56.5-12.25L56.5-12.25Q57.5-13.55 58.9-15.5 60.3-17.45 61.75-19.63 63.2-21.8 64.25-23.6L64.25-23.6Q64.4-23.9 64.57-24.35 64.75-24.8 64.75-25.15L64.75-25.15Q64.75-25.65 64.35-25.65L64.35-25.65Q64.25-25.65 63.77-25.45 63.3-25.25 62.85-25.05 62.4-24.85 62.3-24.85L62.3-24.85Q61.9-24.85 62.35-25.3L62.35-25.3Q63.15-25.9 64.37-26.48 65.6-27.05 66.9-27.45 68.2-27.85 69.1-27.85L69.1-27.85Q71.2-27.85 71.2-26.5L71.2-26.5Q71.2-25.8 70.55-24.65L70.55-24.65Q70-23.75 68.95-22.53 67.9-21.3 66.62-19.93 65.35-18.55 64.15-17.23 62.95-15.9 62.15-14.9L62.15-14.9Q61.95-14.65 61.17-13.6 60.4-12.55 59.42-11.08 58.45-9.6 57.47-7.98 56.5-6.35 55.87-4.88 55.25-3.4 55.25-2.4L55.25-2.4Q55.25-1.05 56.55-1.05L56.55-1.05Q57.4-1.05 58.7-1.55L58.7-1.55Q59.95-2 61.32-2.93 62.7-3.85 64.02-4.9 65.35-5.95 66.37-6.9 67.4-7.85 67.9-8.35L67.9-8.35Q68.2-8.65 68.4-8.65L68.4-8.65Q68.6-8.65 68.6-8.4L68.6-8.4Q68.6-8.15 68.35-7.9L68.35-7.9Q67.55-7.05 66.17-5.7 64.8-4.35 63.12-2.98 61.45-1.6 59.65-0.68 57.85 0.25 56.1 0.25ZM80.19-21.15L80.19-21.15Q79.89-21.15 79.54-21.4L79.54-21.4Q78.64-22.25 78.64-23.55L78.64-23.55Q78.64-25.1 79.97-26.78 81.29-28.45 83.89-29.45L83.89-29.45Q86.84-30.6 90.29-31.38 93.74-32.15 97.37-32.52 100.99-32.9 104.34-32.9L104.34-32.9Q105.59-32.9 106.79-32.85 107.99-32.8 109.09-32.7L109.09-32.7Q116.44-32 120.32-29.9 124.19-27.8 124.19-25.5L124.19-25.5Q124.19-24.55 123.54-23.7L123.54-23.7Q123.24-23.3 122.67-22.93 122.09-22.55 121.74-22.55L121.74-22.55Q121.44-22.55 121.44-22.85L121.44-22.85Q121.44-23.2 121.94-24L121.94-24Q122.54-24.9 122.54-25.65L122.54-25.65Q122.54-27.1 120.72-27.93 118.89-28.75 115.97-29.08 113.04-29.4 109.69-29.4L109.69-29.4Q107.39-29.4 105.04-29.28 102.69-29.15 100.64-28.95L100.64-28.95Q99.69-28.85 97.77-28.6 95.84-28.35 93.44-27.98 91.04-27.6 88.59-27.08 86.14-26.55 84.09-25.9 82.04-25.25 80.77-24.48 79.49-23.7 79.49-22.75L79.49-22.75Q79.49-22.1 80.24-21.4L80.24-21.4Q80.34-21.3 80.34-21.25L80.34-21.25Q80.34-21.15 80.19-21.15ZM93.94 4.05L93.94 4.05Q91.34 3.85 90.39 2.4 89.44 0.95 89.44-1L89.44-1Q89.44-2.65 89.89-4.4 90.34-6.15 90.84-7.6L90.84-7.6Q91.34-9 92.17-10.55 92.99-12.1 94.42-14.25 95.84-16.4 98.14-19.65 100.44-22.9 103.84-27.7L103.84-27.7Q104.44-28.45 104.89-28.45L104.89-28.45Q105.19-28.45 105.32-28.23 105.44-28 105.34-27.8L105.34-27.8Q100.64-20.85 98.12-15.88 95.59-10.9 94.39-7.4L94.39-7.4Q94.14-6.7 93.77-5.43 93.39-4.15 93.09-2.68 92.79-1.2 92.79 0.1L92.79 0.1Q92.79 1.5 93.29 2.5 93.79 3.5 95.04 3.5L95.04 3.5Q95.79 3.5 96.44 3L96.44 3Q96.69 2.85 96.74 2.85L96.74 2.85Q96.84 2.85 96.84 2.95L96.84 2.95Q96.84 3.1 96.54 3.35L96.54 3.35Q95.59 4.2 93.94 4.05ZM103.94 0.05L103.94 0.05Q102.39 0.05 101.54-0.93 100.69-1.9 100.69-3.45L100.69-3.45Q100.69-4.9 101.47-6.65 102.24-8.4 103.94-10.2L103.94-10.2Q105.69-12.1 108.29-13.28 110.89-14.45 113.24-14.45L113.24-14.45Q115.14-14.45 116.49-13.63 117.84-12.8 118.29-11.55L118.29-11.55Q118.84-11.55 119.67-11.25 120.49-10.95 120.49-10.15L120.49-10.15Q120.49-9.6 119.94-8.9L119.94-8.9Q119.59-8.4 118.72-7.4 117.84-6.4 117.09-5.25L117.09-5.25Q116.49-4.35 116.14-3.58 115.79-2.8 115.79-2.25L115.79-2.25Q115.79-1.5 116.54-1.5L116.54-1.5Q117.39-1.5 119.09-2.45L119.09-2.45Q120.94-3.5 122.64-4.85 124.34-6.2 125.29-7L125.29-7Q125.54-7.2 125.64-7.2L125.64-7.2Q125.84-7.2 125.84-6.95L125.84-6.95Q125.84-6.65 125.59-6.4L125.59-6.4Q125.14-6 123.84-4.9 122.54-3.8 120.87-2.6 119.19-1.4 117.59-0.65L117.59-0.65Q116.79-0.3 116.12-0.13 115.44 0.05 114.89 0.05L114.89 0.05Q113.54 0.05 112.84-0.73 112.14-1.5 112.14-2.75L112.14-2.75Q112.14-3.25 112.29-3.8 112.44-4.35 112.64-4.9L112.64-4.9 112.99-5.75Q111.69-4.15 110.39-3.08 109.09-2 107.79-1.2L107.79-1.2Q106.69-0.55 105.72-0.25 104.74 0.05 103.94 0.05ZM105.49-1.25L105.49-1.25Q106.39-1.25 108.09-2.33 109.79-3.4 112.04-5.65L112.04-5.65Q112.34-5.95 113.17-6.73 113.99-7.5 114.94-8.47 115.89-9.45 116.57-10.43 117.24-11.4 117.24-12.05L117.24-12.05Q117.24-13 115.59-13L115.59-13Q114.14-13 112.12-11.88 110.09-10.75 108.24-8.55L108.24-8.55Q106.34-6.3 105.47-4.67 104.59-3.05 104.59-2.2L104.59-2.2Q104.59-1.25 105.49-1.25ZM132.49 0.05L132.49 0.05Q130.34 0.05 129.59-0.78 128.84-1.6 128.84-2.6L128.84-2.6Q128.84-3.9 129.84-5.35L129.84-5.35Q130.44-6.2 131.19-7.28 131.94-8.35 132.59-9.3 133.24-10.25 133.49-10.65L133.49-10.65Q133.84-11.15 133.91-11.33 133.99-11.5 133.99-11.7L133.99-11.7Q133.99-12 133.61-12.28 133.24-12.55 132.39-12.55L132.39-12.55Q132.14-12.55 131.96-12.53 131.79-12.5 131.59-12.5L131.59-12.5Q131.19-12.5 131.14-12.55L131.14-12.55 130.99-12.35Q129.59-10.5 127.99-8.72 126.39-6.95 124.49-5.45L124.49-5.45Q124.29-5.3 124.19-5.3L124.19-5.3Q123.99-5.3 123.99-5.5L123.99-5.5Q123.99-5.9 124.59-6.4L124.59-6.4Q126.14-7.7 127.64-9.33 129.14-10.95 130.34-12.75L130.34-12.75Q129.89-13.05 129.89-13.95L129.89-13.95Q129.89-15.3 130.74-16.85L130.74-16.85Q131.34-17.9 132.06-18.43 132.79-18.95 133.34-18.95L133.34-18.95Q134.39-18.95 134.39-17.7L134.39-17.7Q134.39-16.9 133.79-15.7L133.79-15.7Q133.54-15.1 132.81-14.18 132.09-13.25 131.39-12.85L131.39-12.85Q132.44-13.2 134.06-13.33 135.69-13.45 136.79-13.45L136.79-13.45Q137.44-13.45 138.39-13.08 139.34-12.7 139.34-11.75L139.34-11.75Q139.34-11.1 138.74-10.35L138.74-10.35Q138.59-10.15 137.94-9.4 137.29-8.65 136.51-7.6 135.74-6.55 135.09-5.5L135.09-5.5Q134.44-4.55 134.06-3.75 133.69-2.95 133.69-2.4L133.69-2.4Q133.69-1.6 134.59-1.6L134.59-1.6Q135.64-1.6 137.39-2.6 139.14-3.6 141.16-5.18 143.19-6.75 144.89-8.45L144.89-8.45Q145.09-8.65 145.24-8.65L145.24-8.65Q145.44-8.65 145.44-8.4L145.44-8.4Q145.44-8.1 145.19-7.85L145.19-7.85Q143.44-6.1 141.31-4.28 139.19-2.45 136.91-1.2 134.64 0.05 132.49 0.05ZM147.89 0.5L147.89 0.5Q145.69 0.5 144.21-0.58 142.74-1.65 142.74-3.7L142.74-3.7Q142.74-5.9 143.79-7.8 144.84-9.7 146.59-11.13 148.34-12.55 150.41-13.35 152.49-14.15 154.54-14.15L154.54-14.15Q156.59-14.15 157.59-13.43 158.59-12.7 158.59-11.65L158.59-11.65Q158.59-10.65 157.66-9.53 156.74-8.4 154.99-7.55L154.99-7.55Q153.89-7.05 152.46-6.68 151.04-6.3 149.99-6.3L149.99-6.3Q149.19-6.3 149.19-6.55L149.19-6.55Q149.19-6.75 149.89-6.75L149.89-6.75Q150.54-6.75 151.91-7.13 153.29-7.5 154.59-8.15L154.59-8.15Q156.04-8.95 156.64-9.75 157.24-10.55 157.24-11.2L157.24-11.2Q157.24-11.8 156.76-12.2 156.29-12.6 155.44-12.6L155.44-12.6Q154.64-12.6 153.64-12.15L153.64-12.15Q152.19-11.5 150.66-10.03 149.14-8.55 148.14-6.8 147.14-5.05 147.14-3.45L147.14-3.45Q147.14-2.35 147.76-1.6 148.39-0.85 149.64-0.85L149.64-0.85Q150.94-0.85 152.64-1.68 154.34-2.5 156.09-3.73 157.84-4.95 159.34-6.2 160.84-7.45 161.74-8.3L161.74-8.3Q162.04-8.6 162.19-8.6L162.19-8.6Q162.34-8.6 162.34-8.35L162.34-8.35Q162.34-8 162.04-7.75L162.04-7.75Q160.14-6 157.91-4.1 155.69-2.2 153.16-0.88 150.64 0.45 147.89 0.5ZM161.88 3.95L161.88 3.95Q160.78 2.95 160.41 2.13 160.03 1.3 160.03-0.15L160.03-0.15Q160.03-1.65 160.46-3.5 160.88-5.35 161.68-7.35L161.68-7.35Q161.18-6.85 160.63-6.35 160.08-5.85 159.53-5.45L159.53-5.45Q159.38-5.3 159.23-5.3L159.23-5.3Q159.08-5.3 159.08-5.45L159.08-5.45Q159.08-5.8 159.68-6.4L159.68-6.4Q160.48-7.1 161.18-7.95 161.88-8.8 162.73-9.85L162.73-9.85Q165.23-15.4 168.33-19.85 171.43-24.3 175.83-28.4L175.83-28.4Q178.08-30.45 180.06-31.35 182.03-32.25 183.53-32.25L183.53-32.25Q185.03-32.25 185.88-31.45 186.73-30.65 186.73-29.35L186.73-29.35Q186.73-28.1 185.91-26.5 185.08-24.9 183.23-23.15L183.23-23.15Q181.93-21.9 180.13-20.58 178.33-19.25 176.43-18.1 174.53-16.95 172.88-16.2L172.88-16.2Q172.78-16.15 172.68-16.13 172.58-16.1 172.48-16.1L172.48-16.1Q172.13-16.1 172.13-16.35L172.13-16.35Q172.13-16.65 172.68-16.85L172.68-16.85Q174.23-17.55 176.11-18.75 177.98-19.95 179.73-21.35 181.48-22.75 182.68-24L182.68-24Q184.18-25.6 184.86-26.73 185.53-27.85 185.53-28.45L185.53-28.45Q185.53-29.2 184.68-29.2L184.68-29.2Q183.78-29.2 182.11-28.28 180.43-27.35 178.28-25.45L178.28-25.45Q175.63-23.1 173.06-20.05 170.48-17 168.36-14.03 166.23-11.05 164.83-8.75L164.83-8.75Q166.78-11.35 168.63-12.8 170.48-14.25 172.03-14.9L172.03-14.9Q173.33-15.4 174.48-15.4L174.48-15.4Q175.78-15.4 176.58-14.75 177.38-14.1 177.38-13.1L177.38-13.1Q177.38-12.1 176.71-10.85 176.03-9.6 174.43-8.4L174.43-8.4Q173.18-7.5 171.11-6.83 169.03-6.15 167.23-6.15L167.23-6.15Q166.18-6.15 165.43-6.45L165.43-6.45Q166.43-5.2 167.93-4.03 169.43-2.85 171.01-2.13 172.58-1.4 173.78-1.4L173.78-1.4Q174.63-1.4 175.33-1.85 176.03-2.3 176.03-2.95L176.03-2.95Q176.03-3.05 176.16-3.05 176.28-3.05 176.28-2.95L176.28-2.95Q176.28-2 175.51-1.4 174.73-0.8 173.63-0.55L173.63-0.55Q173.13-0.45 172.61-0.38 172.08-0.3 171.53-0.3L171.53-0.3Q169.48-0.3 167.71-1.03 165.93-1.75 164.66-2.83 163.38-3.9 162.83-4.9L162.83-4.9Q162.18-3.3 161.86-1.73 161.53-0.15 161.53 1.15L161.53 1.15Q161.53 2.9 162.13 3.65L162.13 3.65Q162.28 3.85 162.13 3.93 161.98 4 161.88 3.95ZM166.28-6.7L166.28-6.7Q167.53-6.7 169.26-7.3 170.98-7.9 172.08-8.75L172.08-8.75Q172.98-9.45 173.41-10.25 173.83-11.05 173.83-11.7L173.83-11.7Q173.83-12.4 173.41-12.88 172.98-13.35 172.18-13.35L172.18-13.35Q171.38-13.35 170.28-12.83 169.18-12.3 167.73-11L167.73-11Q166.93-10.25 166.11-9.45 165.28-8.65 164.58-7.8L164.58-7.8Q164.68-7.55 164.83-7.28 164.98-7 165.18-6.9L165.18-6.9Q165.38-6.8 165.68-6.75 165.98-6.7 166.28-6.7Z" opacity="1" transform="matrix(1,0,0,1,0,0)" fill="#8bc53f" class="wordmark-text-0" data-fill-palette-color="primary" id="text-0"></path></svg></g></svg></g></svg></g></svg></g><g></g></svg></g></svg></g></svg></g><g><path d="M81.255 86.679A122.216 122.216 0 0 1 314.265 86.679L309.742 86.679A117.692 117.692 0 0 0 85.778 86.679L81.255 86.679M81.255 160.521A122.216 122.216 0 0 0 314.265 160.521L309.742 160.521A117.692 117.692 0 0 1 85.778 160.521L81.255 160.521" fill="#8bc53f" stroke="transparent" data-fill-palette-color="tertiary"></path></g></svg></g><defs></defs></svg><rect width="395.52" height="247.2" fill="none" stroke="none" visibility="hidden"></rect></g></svg></g></svg>